<?xml version="1.0" standalone="no"?>
<!DOCTYPE svg PUBLIC "-//W3C//DTD SVG 20010904//EN"
 "http://www.w3.org/TR/2001/REC-SVG-20010904/DTD/svg10.dtd">
<svg version="1.0" xmlns="http://www.w3.org/2000/svg"
 width="516.000000pt" height="89.000000pt" viewBox="0 0 516.000000 89.000000"
 preserveAspectRatio="xMidYMid meet">

<g transform="translate(0.000000,89.000000) scale(0.100000,-0.100000)"
fill="#000000" stroke="none">
<path d="M95 878 c-8 -23 -85 -313 -85 -321 0 -21 25 19 26 42 1 14 6 42 12
61 20 68 59 230 55 230 -2 0 -6 -6 -8 -12z"/>
<path d="M1018 873 c-2 -10 -2 -27 1 -38 5 -17 14 -20 59 -20 l53 0 -5 -35
c-5 -35 -5 -35 8 5 l13 40 -60 3 -59 3 6 30 c6 31 -9 42 -16 12z"/>
<path d="M910 847 c-20 -17 -50 -43 -67 -57 -38 -31 -53 -70 -26 -70 11 0 14
3 7 8 -17 10 0 48 25 55 11 2 22 0 25 -7 3 -6 4 -3 3 7 -1 10 17 34 43 57 25
22 41 40 35 40 -5 0 -26 -15 -45 -33z"/>
<path d="M2386 829 c-3 -17 -6 -44 -6 -60 0 -26 4 -29 30 -29 23 0 33 6 40 25
5 14 12 25 16 25 3 0 4 -11 2 -25 -5 -22 -2 -25 23 -25 25 0 33 8 59 60 l30
60 -25 0 c-20 0 -29 -8 -40 -32 l-14 -33 -1 33 c0 24 -4 32 -18 32 -11 0 -26
-14 -35 -32 l-17 -33 6 33 c5 29 3 32 -19 32 -19 0 -26 -6 -31 -31z"/>
<path d="M2842 848 c-7 -7 -35 -11 -66 -10 l-54 2 -7 -36 c-3 -19 -9 -42 -12
-50 -10 -27 43 -17 55 11 6 14 18 25 27 25 8 0 15 5 15 10 0 6 5 10 10 10 7 0
8 -13 5 -34 -8 -38 4 -47 48 -39 30 6 35 18 12 27 -13 4 -14 10 -5 26 6 11 15
18 20 15 5 -3 14 4 20 15 9 17 8 20 -10 20 -12 0 -18 5 -15 10 9 14 -29 12
-43 -2z"/>
<path d="M204 835 c-4 -8 -4 -22 -1 -30 10 -25 -16 -126 -30 -121 -17 7 -17
-2 1 -19 12 -12 17 -2 35 69 11 45 23 91 26 102 3 10 -2 6 -10 -11 l-16 -30 4
28 c5 29 0 36 -9 12z"/>
<path d="M2242 822 c-28 -19 -28 -56 1 -74 34 -23 67 -4 67 37 0 41 -34 60
-68 37z m43 -37 c0 -11 -7 -21 -16 -23 -18 -3 -33 23 -23 39 10 17 39 5 39
-16z"/>
<path d="M2575 817 c-21 -30 -20 -77 3 -78 9 -1 22 0 27 1 6 1 25 3 44 4 33 1
35 4 47 48 l12 46 -59 1 c-49 0 -61 -4 -74 -22z m68 -32 c-7 -19 -33 -20 -33
-1 0 15 20 26 32 19 4 -2 5 -10 1 -18z"/>
<path d="M2918 799 c-11 -37 -10 -43 7 -55 10 -8 29 -14 42 -14 26 0 73 41 73
64 0 8 3 21 6 30 5 12 0 16 -20 16 -21 0 -27 -7 -37 -40 -7 -22 -16 -40 -21
-40 -5 0 -7 9 -4 20 3 11 9 29 12 40 4 16 1 20 -20 20 -21 0 -27 -7 -38 -41z"/>
<path d="M3065 826 c-2 -6 -8 -26 -14 -45 -14 -45 -15 -43 17 -39 19 2 28 9
30 25 2 12 10 27 19 35 14 12 15 9 9 -24 -6 -36 -5 -38 18 -38 21 0 27 7 36
40 6 22 8 45 5 50 -8 13 -116 10 -120 -4z"/>
<path d="M3212 827 c-6 -7 -12 -26 -14 -42 -3 -28 -1 -30 34 -30 20 0 34 -3
31 -7 -2 -5 -20 -8 -39 -8 -44 0 -42 -24 2 -28 53 -5 82 13 94 58 6 23 13 47
16 55 7 18 -110 20 -124 2z m68 -31 c0 -16 -18 -31 -27 -22 -8 8 5 36 17 36 5
0 10 -6 10 -14z"/>
<path d="M3356 824 c-9 -8 -16 -31 -16 -50 0 -28 4 -35 26 -40 30 -8 75 5 81
22 2 7 -8 9 -27 6 -18 -3 -30 0 -30 7 0 6 15 11 34 11 25 0 35 5 39 19 2 11 0
24 -6 30 -16 16 -83 13 -101 -5z m64 -14 c0 -5 -8 -10 -17 -10 -15 0 -16 2 -3
10 19 12 20 12 20 0z"/>
<path d="M3485 826 c-2 -6 -8 -28 -14 -48 -9 -36 -8 -38 15 -38 18 0 27 9 38
35 8 19 18 35 22 35 4 0 4 -16 1 -35 -5 -32 -4 -35 18 -35 20 0 26 7 35 40 6
22 8 45 5 50 -8 13 -116 10 -120 -4z"/>
<path d="M427 823 c-16 -26 -59 -234 -54 -255 10 -38 57 -53 167 -53 103 0
146 15 175 59 13 20 74 223 75 249 0 4 -32 7 -72 5 l-72 -3 -8 -34 c-5 -18 -7
-35 -4 -38 3 -3 9 10 14 28 8 34 9 34 71 37 49 2 62 0 59 -10 -3 -7 -11 -37
-18 -65 -14 -53 -24 -65 -33 -40 -4 7 -6 6 -6 -5 -1 -9 5 -19 12 -21 9 -4 9
-8 0 -14 -6 -5 -11 -15 -11 -23 2 -33 -3 -51 -12 -45 -5 3 -10 -3 -10 -14 0
-23 -34 -46 -52 -35 -6 4 -8 3 -4 -4 9 -14 -91 -26 -163 -19 -39 4 -61 12 -72
26 -9 11 -19 17 -23 14 -3 -4 -6 6 -6 21 0 19 4 25 13 20 9 -5 9 -4 1 5 -8 9
-6 31 8 84 33 126 34 127 99 127 l57 0 -24 -92 c-14 -51 -22 -103 -19 -115 6
-27 37 -38 65 -23 11 6 26 8 32 4 8 -5 9 5 5 34 -5 28 -3 45 6 54 8 8 11 23 7
38 -5 21 -8 16 -20 -30 -7 -30 -18 -63 -24 -72 -13 -21 -54 -24 -62 -4 -3 8 6
56 20 107 14 52 26 97 26 102 0 4 -31 7 -69 7 -39 0 -72 -3 -74 -7z"/>
<path d="M1170 789 c-6 -22 -14 -47 -17 -55 -4 -11 7 -14 58 -12 l64 2 -53 3
c-43 3 -53 7 -48 19 3 9 6 27 6 40 0 17 4 23 12 18 7 -5 8 -3 3 6 -7 11 5 12
61 7 38 -4 95 -7 127 -7 36 0 56 -4 52 -10 -3 -5 1 -10 9 -10 9 0 16 4 16 9 0
5 6 11 13 14 10 4 13 -2 9 -19 -2 -13 -10 -24 -17 -24 -7 0 -16 -7 -19 -16 -5
-14 -4 -15 9 -4 8 7 15 8 15 2 0 -5 -25 -27 -55 -47 -30 -21 -55 -42 -55 -47
0 -5 26 11 59 36 38 29 61 55 65 73 4 15 9 36 12 46 5 16 -7 17 -155 17 l-160
0 -11 -41z"/>
<path d="M1507 731 c-3 -13 1 -21 13 -24 10 -2 26 -16 35 -31 24 -36 6 -78
-51 -117 -23 -16 -46 -38 -49 -49 -3 -11 -12 -20 -18 -20 -7 0 -57 -27 -111
-60 -55 -33 -104 -60 -110 -60 -6 0 -19 7 -29 14 -16 12 -14 14 18 20 49 9
193 77 177 83 -7 3 -50 -11 -96 -31 -46 -20 -96 -36 -113 -36 -16 0 -55 16
-87 35 -32 19 -62 35 -67 35 -23 0 -1 -20 81 -75 50 -33 90 -62 90 -65 0 -9
-157 -100 -173 -100 -20 0 -43 28 -67 84 -17 38 -20 58 -15 97 6 45 5 49 -13
49 -17 0 -22 -9 -27 -44 -11 -72 22 -171 65 -198 19 -12 18 -14 -22 -48 -32
-29 -41 -43 -41 -68 0 -43 21 -80 55 -98 39 -20 53 -18 152 26 l90 40 50 -35
c58 -40 105 -46 135 -16 15 15 28 18 58 14 34 -4 43 -1 69 26 21 22 38 31 61
31 24 0 38 7 54 29 12 16 34 32 50 35 45 9 79 48 79 91 0 20 -4 44 -9 53 -8
15 -1 17 64 17 67 0 76 3 112 31 56 46 77 88 77 152 -1 29 -6 58 -11 63 -7 7
-37 -5 -92 -37 -72 -42 -85 -46 -114 -38 -27 8 -32 15 -32 39 0 27 9 35 87 80
48 27 86 55 85 60 -7 20 -68 53 -111 59 -58 9 -119 -8 -159 -44 l-32 -28 -36
39 c-39 43 -64 50 -72 20z m322 -40 c10 -7 -4 -19 -52 -47 -37 -21 -68 -43
-70 -48 -2 -6 -2 -33 1 -59 4 -44 7 -49 43 -67 52 -27 62 -26 129 15 32 19 60
35 64 35 3 0 6 -10 6 -21 0 -32 -38 -87 -70 -104 -37 -19 -103 -19 -138 -1
-23 12 -32 12 -52 1 -22 -12 -30 -8 -101 39 -43 28 -78 54 -78 58 -1 4 24 22
54 40 30 18 55 40 55 49 0 27 43 81 80 100 36 20 105 25 129 10z m-242 -302
c101 -65 123 -87 123 -119 0 -69 -53 -66 -166 10 -128 87 -144 110 -103 151
27 27 50 21 146 -42z m-100 -92 c85 -58 109 -79 111 -100 2 -19 -4 -30 -23
-43 l-26 -17 -117 80 c-119 81 -139 106 -112 139 23 27 60 14 167 -59z m-112
-67 c57 -38 106 -74 110 -80 10 -17 -5 -48 -26 -55 -15 -5 -46 10 -113 55
-119 78 -142 101 -127 129 7 12 21 21 32 21 11 0 66 -31 124 -70z m-105 -52
c80 -53 91 -64 88 -87 -5 -41 -37 -37 -114 15 -38 26 -79 56 -91 67 -35 32
-28 63 14 66 6 1 53 -27 103 -61z m-155 -35 c14 -12 25 -24 25 -26 0 -2 -32
-19 -71 -37 l-71 -32 -26 19 c-18 14 -27 29 -27 49 0 25 10 36 65 72 l65 44 8
-34 c4 -18 19 -43 32 -55z"/>
<path d="M844 696 c-1 -17 1 -23 3 -13 2 9 8 15 12 13 4 -3 7 3 7 13 0 31 -21
19 -22 -13z"/>
<path d="M983 710 c-3 -11 -8 -18 -12 -16 -3 2 -7 -18 -8 -45 -2 -44 0 -51 21
-59 13 -5 33 -6 44 -4 16 5 19 1 16 -21 -1 -15 -4 -28 -6 -30 -2 -2 -42 -6
-90 -9 -94 -5 -123 6 -112 42 5 14 4 15 -5 2 -9 -13 -11 -13 -11 2 0 9 4 19 8
22 4 2 8 19 9 38 2 31 1 30 -13 -12 -29 -92 1 -116 134 -104 l83 6 19 39 c11
21 20 40 20 42 0 2 -25 2 -55 -1 -62 -5 -63 -3 -43 72 l12 45 65 4 66 3 -68 2
c-61 2 -69 0 -74 -18z"/>
<path d="M1260 700 c-13 -8 -12 -10 3 -10 9 0 17 5 17 10 0 12 -1 12 -20 0z"/>
<path d="M72 675 c0 -16 2 -22 5 -12 2 9 2 23 0 30 -3 6 -5 -1 -5 -18z"/>
<path d="M1075 664 c-43 -16 -75 -40 -40 -31 11 3 41 9 67 13 56 7 89 34 42
33 -16 0 -47 -7 -69 -15z"/>
<path d="M1175 638 c-50 -40 -63 -59 -64 -88 0 -8 6 0 14 18 8 19 24 36 34 39
11 3 27 16 36 29 9 14 21 22 27 18 6 -4 8 -3 4 4 -3 5 0 13 6 15 7 3 9 5 3 6
-5 0 -32 -19 -60 -41z"/>
<path d="M265 640 l-70 -6 62 -2 63 -2 -7 -32 c-8 -43 2 -33 15 15 6 20 10 36
9 35 -1 -1 -33 -4 -72 -8z"/>
<path d="M1330 640 c-9 -6 -10 -10 -3 -10 6 0 15 5 18 10 8 12 4 12 -15 0z"/>
<path d="M1433 613 c-7 -3 -14 -23 -15 -46 l-1 -42 -7 45 -7 45 -1 -42 -2 -42
-152 -4 -153 -3 166 -2 166 -2 10 47 c13 53 13 52 -4 46z"/>
<path d="M2390 561 l0 -61 35 0 c32 0 37 4 62 53 15 28 29 55 31 60 2 4 -7 7
-21 7 -18 0 -28 -8 -38 -32 l-14 -33 -5 30 c-4 21 -12 31 -28 33 -21 3 -22 0
-22 -57z"/>
<path d="M3744 602 c-15 -12 -22 -29 -23 -59 -1 -43 -1 -43 34 -43 19 0 35 5
35 10 0 6 -4 10 -10 10 -5 0 -10 9 -10 20 0 13 7 20 19 20 10 0 21 9 24 20 3
13 0 20 -9 20 -8 0 -14 5 -14 10 0 15 -23 12 -46 -8z"/>
<path d="M4055 568 c-19 -67 -19 -68 9 -68 17 0 25 8 32 31 5 17 14 30 19 29
11 -2 11 -4 0 -37 -5 -20 -3 -23 19 -23 21 0 27 7 36 40 13 50 6 63 -32 58
-21 -4 -27 -1 -24 9 4 9 -3 13 -19 13 -21 0 -27 -8 -40 -52z"/>
<path d="M4355 603 c16 -12 16 -14 3 -10 -14 5 -20 -3 -31 -41 -12 -40 -12
-47 0 -50 27 -7 40 6 47 45 4 21 9 46 12 56 4 13 -1 17 -23 17 -27 -1 -28 -1
-8 -17z"/>
<path d="M4396 566 c-20 -69 -21 -66 9 -66 17 0 25 6 25 18 1 16 1 16 11 0 5
-10 21 -18 34 -18 22 0 23 3 15 24 -7 19 -5 28 11 42 25 23 24 34 -5 34 -13 0
-30 -10 -39 -22 -15 -22 -16 -22 -7 10 8 29 7 32 -15 32 -20 0 -26 -8 -39 -54z"/>
<path d="M2243 588 c-33 -16 -31 -61 3 -76 18 -9 31 -9 45 -2 26 14 26 66 0
80 -23 12 -20 12 -48 -2z m45 -35 c4 -25 -22 -37 -38 -17 -10 11 -10 17 0 29
17 20 34 14 38 -12z"/>
<path d="M2521 581 c-46 -46 -10 -100 55 -82 39 10 42 29 4 23 -18 -3 -30 0
-30 7 0 6 16 11 36 11 33 0 35 2 32 28 -3 23 -8 27 -40 30 -27 2 -43 -3 -57
-17z m56 -17 c-3 -3 -12 -4 -19 -1 -8 3 -5 6 6 6 11 1 17 -2 13 -5z"/>
<path d="M2636 572 c-3 -15 -8 -37 -12 -49 -5 -20 -2 -23 19 -23 18 0 27 7 31
24 5 22 46 44 46 25 0 -5 11 -9 25 -9 14 0 25 -5 25 -11 0 -6 -12 -9 -27 -7
-15 2 -28 -2 -30 -9 -5 -15 73 -18 95 -4 21 13 10 44 -18 52 -23 6 -22 7 8 8
21 1 32 6 32 16 0 23 -86 21 -99 -2 -8 -15 -10 -15 -11 -3 0 11 -11 16 -39 17
-34 2 -39 -1 -45 -25z"/>
<path d="M2857 588 c-20 -16 -30 -58 -18 -77 5 -8 25 -14 47 -14 56 0 95 58
62 91 -16 16 -70 15 -91 0z m53 -43 c0 -8 -7 -15 -15 -15 -8 0 -15 7 -15 15 0
8 7 15 15 15 8 0 15 -7 15 -15z"/>
<path d="M2971 555 c-14 -57 -15 -55 13 -55 17 0 26 6 28 21 2 12 13 26 26 30
19 7 22 5 22 -18 0 -24 2 -25 35 -20 21 3 33 2 30 -4 -4 -5 -22 -9 -41 -9 -19
0 -34 -5 -34 -11 0 -6 20 -9 52 -7 57 3 70 17 84 86 l6 30 -51 0 c-32 0 -57
-6 -66 -15 -12 -12 -15 -12 -15 -1 0 9 -14 14 -39 15 -38 2 -39 1 -50 -42z
m158 -11 c-6 -7 -15 -11 -21 -8 -5 3 -4 12 3 20 6 7 15 11 21 8 5 -3 4 -12 -3
-20z"/>
<path d="M3200 560 c-6 -22 -8 -45 -5 -50 3 -6 26 -10 51 -10 42 0 46 2 60 35
20 49 18 67 -8 63 -14 -2 -25 -14 -32 -35 -14 -40 -31 -57 -22 -21 3 14 9 33
12 42 5 12 0 16 -20 16 -21 0 -27 -7 -36 -40z"/>
<path d="M3330 561 c-15 -53 -13 -61 15 -61 17 0 25 5 25 18 0 10 7 27 16 38
14 18 15 17 9 -18 -5 -35 -4 -38 18 -38 20 0 26 7 34 39 6 21 8 43 4 49 -3 5
-30 10 -58 10 -52 0 -53 -1 -63 -37z"/>
<path d="M3474 575 c-24 -36 -15 -60 23 -60 17 0 29 -3 26 -7 -2 -5 -17 -8
-33 -8 -16 0 -32 -4 -35 -10 -7 -12 84 -14 102 -2 9 6 42 88 43 109 0 1 -25 2
-55 2 -47 0 -58 -4 -71 -24z m66 -19 c0 -16 -18 -31 -27 -22 -8 8 5 36 17 36
5 0 10 -6 10 -14z"/>
<path d="M3610 581 c-16 -31 -12 -41 15 -41 14 0 25 -5 25 -11 0 -6 -12 -9
-27 -7 -15 2 -28 -2 -30 -9 -7 -19 81 -17 97 2 17 20 6 42 -22 48 -17 3 -15 5
10 6 21 1 32 6 32 16 0 24 -86 21 -100 -4z"/>
<path d="M3826 578 c-36 -51 -7 -93 56 -81 38 7 44 30 7 25 -16 -2 -29 0 -29
6 0 6 15 12 33 14 27 2 32 7 32 28 0 22 -5 25 -42 28 -33 2 -44 -1 -57 -20z
m61 -14 c-3 -3 -12 -4 -19 -1 -8 3 -5 6 6 6 11 1 17 -2 13 -5z"/>
<path d="M3963 592 c-17 -11 -33 -59 -26 -77 4 -12 17 -15 46 -13 46 3 65 28
22 28 -33 0 -29 24 6 29 25 3 41 19 33 33 -6 10 -65 10 -81 0z"/>
<path d="M4190 561 c-15 -53 -13 -61 15 -61 17 0 25 5 25 18 0 10 7 27 16 38
14 18 15 17 9 -18 -5 -35 -4 -38 18 -38 20 0 26 7 34 39 6 21 8 43 4 49 -3 5
-30 10 -58 10 -52 0 -53 -1 -63 -37z"/>
<path d="M1145 580 c3 -5 8 -10 11 -10 2 0 4 5 4 10 0 6 -5 10 -11 10 -5 0 -7
-4 -4 -10z"/>
<path d="M300 545 c0 -14 -21 -16 -146 -14 -80 0 -148 -2 -151 -5 -4 -3 64 -6
150 -6 150 0 157 1 157 20 0 11 -2 20 -5 20 -3 0 -5 -7 -5 -15z"/>
<path d="M2971 372 c-4 -10 -11 -30 -15 -47 -4 -16 -9 -38 -12 -47 -4 -14 1
-18 20 -18 22 0 26 6 37 58 8 31 13 59 14 61 1 13 -37 6 -44 -7z"/>
<path d="M2488 319 l-16 -60 26 3 c20 2 28 11 34 36 12 44 31 42 22 -3 -6 -32
-4 -35 19 -35 19 0 26 6 31 31 13 65 9 72 -28 66 -28 -4 -34 -3 -29 9 3 10 -2
14 -19 14 -21 0 -26 -8 -40 -61z"/>
<path d="M3254 353 c-3 -16 -10 -41 -15 -57 -12 -38 -13 -36 16 -36 20 0 27 6
32 30 5 29 19 47 28 38 3 -2 0 -19 -5 -37 -9 -31 -8 -32 17 -29 21 2 29 10 36
37 12 47 3 64 -32 59 -21 -3 -28 -1 -24 9 3 9 -3 13 -21 13 -20 0 -27 -6 -32
-27z"/>
<path d="M3571 325 c-17 -30 -31 -57 -31 -60 0 -3 11 -5 25 -5 14 0 25 5 25
10 0 6 9 10 20 10 11 0 20 -4 20 -10 0 -5 11 -10 25 -10 24 0 25 3 25 60 l0
60 -39 0 c-37 0 -41 -3 -70 -55z m59 0 c0 -8 -4 -15 -10 -15 -5 0 -7 7 -4 15
4 8 8 15 10 15 2 0 4 -7 4 -15z"/>
<path d="M4370 367 c0 -9 -9 -12 -29 -9 -23 3 -33 -1 -46 -21 -9 -14 -15 -36
-13 -49 3 -21 9 -23 58 -25 l56 -2 15 59 16 60 -29 0 c-17 0 -28 -5 -28 -13z
m-18 -69 c-15 -15 -26 -4 -18 18 5 13 9 15 18 6 9 -9 9 -15 0 -24z"/>
<path d="M2242 344 c-47 -33 -5 -102 47 -75 28 15 29 66 2 81 -25 13 -22 13
-49 -6z m48 -33 c0 -27 -19 -36 -37 -18 -18 18 -9 37 18 37 12 0 19 -7 19 -19z"/>
<path d="M2384 336 c-8 -14 -14 -35 -12 -48 2 -19 10 -24 44 -26 30 -2 43 1
47 12 5 12 0 16 -18 16 -16 0 -25 6 -25 15 0 10 10 15 30 15 23 0 30 4 30 20
0 17 -7 20 -40 20 -31 0 -43 -5 -56 -24z"/>
<path d="M2636 341 c-10 -11 -16 -31 -14 -48 3 -26 7 -28 49 -31 34 -2 48 1
52 12 5 12 0 14 -22 10 -16 -4 -32 -1 -35 5 -5 7 7 11 34 11 39 0 41 1 38 28
-3 24 -8 27 -44 30 -30 2 -45 -2 -58 -17z m59 -11 c3 -5 -1 -10 -10 -10 -9 0
-13 5 -10 10 3 6 8 10 10 10 2 0 7 -4 10 -10z"/>
<path d="M2751 314 c-14 -56 -15 -54 14 -54 17 0 25 5 25 18 0 10 7 27 15 38
14 18 15 16 9 -18 -6 -36 -5 -38 19 -38 20 0 26 6 31 35 4 19 11 35 17 35 6 0
7 -14 3 -35 -5 -31 -4 -35 14 -35 26 0 30 6 38 58 l6 41 -90 -1 -90 -1 -11
-43z"/>
<path d="M3033 353 c-7 -2 -13 -16 -13 -29 0 -17 6 -24 20 -24 11 0 20 -5 20
-11 0 -7 -10 -9 -25 -5 -18 5 -25 2 -25 -9 0 -11 11 -15 45 -15 35 0 47 4 56
21 12 23 5 34 -26 42 -16 4 -14 5 6 6 15 0 29 8 33 16 4 12 -3 15 -37 14 -23
0 -48 -3 -54 -6z"/>
<path d="M3146 341 c-10 -11 -16 -31 -14 -48 3 -25 7 -28 46 -31 33 -2 42 0
42 12 0 9 -9 16 -20 16 -31 0 -24 28 7 32 17 2 29 10 31 21 5 25 -69 24 -92
-2z"/>
<path d="M3396 344 c-11 -10 -16 -28 -14 -48 3 -30 5 -31 47 -31 27 0 46 5 49
13 2 7 -2 10 -12 6 -9 -3 -24 -3 -33 2 -14 6 -8 9 22 13 34 5 40 9 40 31 0 22
-5 25 -41 28 -29 2 -47 -2 -58 -14z m59 -14 c3 -5 -1 -10 -10 -10 -9 0 -13 5
-10 10 3 6 8 10 10 10 2 0 7 -4 10 -10z"/>
<path d="M3715 346 c-2 -6 -8 -28 -14 -48 -9 -36 -8 -38 14 -38 18 0 26 8 35
35 6 19 16 35 21 35 6 0 7 -15 3 -35 -5 -31 -4 -35 15 -35 23 0 41 33 41 75 0
23 -3 24 -56 24 -32 -1 -57 -6 -59 -13z"/>
<path d="M3850 310 c0 -47 2 -50 25 -50 17 0 29 7 35 23 l9 22 0 -22 c1 -19 7
-23 31 -23 26 0 33 6 54 50 l24 50 -24 0 c-15 0 -28 -9 -38 -27 l-15 -28 -1
28 c0 17 -5 27 -15 27 -8 0 -21 -12 -29 -27 l-15 -28 -1 28 c0 20 -5 27 -20
27 -17 0 -20 -7 -20 -50z"/>
<path d="M4038 343 c-24 -28 -30 -59 -14 -72 19 -16 88 -10 94 7 3 9 -3 11
-21 7 -14 -4 -28 -2 -31 4 -5 7 5 11 28 11 26 0 36 5 41 20 3 11 3 24 0 30
-11 17 -80 12 -97 -7z m57 -13 c3 -5 -1 -10 -10 -10 -9 0 -13 5 -10 10 3 6 8
10 10 10 2 0 7 -4 10 -10z"/>
<path d="M4149 316 c-6 -22 -13 -45 -16 -49 -3 -5 7 -7 23 -5 22 2 30 10 36
36 12 44 32 42 24 -3 -6 -32 -5 -35 17 -35 19 0 26 7 31 31 13 66 11 68 -49
68 l-55 -1 -11 -42z"/>
<path d="M4425 320 c-9 -51 -2 -60 45 -60 43 0 62 19 74 73 6 24 4 27 -18 27
-21 0 -26 -6 -32 -35 -9 -52 -29 -58 -20 -7 6 40 5 42 -18 42 -20 0 -25 -6
-31 -40z"/>
<path d="M4565 347 c-2 -7 -8 -27 -14 -46 -14 -44 -15 -41 14 -41 19 0 26 7
33 32 12 47 35 50 26 3 -6 -34 -5 -37 17 -33 16 2 25 12 32 37 4 18 6 39 3 47
-6 16 -106 17 -111 1z"/>
<path d="M4705 343 c-9 -8 -15 -27 -13 -42 3 -22 7 -26 35 -25 18 1 30 -2 27
-7 -3 -5 -21 -9 -40 -9 -19 0 -34 -4 -34 -10 0 -5 22 -10 50 -10 56 0 73 16
84 82 l7 36 -51 0 c-32 1 -55 -5 -65 -15z m65 -22 c0 -5 -7 -14 -15 -21 -12
-10 -15 -10 -15 2 0 8 3 18 7 21 9 10 23 9 23 -2z"/>
<path d="M4841 346 c-7 -9 -14 -30 -14 -48 l-2 -33 49 0 c30 0 51 5 53 12 3 9
-4 11 -26 7 -20 -4 -31 -2 -31 5 0 6 16 11 36 11 33 0 35 2 32 28 -3 24 -8 27
-44 30 -27 2 -45 -2 -53 -12z m56 -22 c-3 -3 -12 -4 -19 -1 -8 3 -5 6 6 6 11
1 17 -2 13 -5z"/>
<path d="M4955 324 c-3 -20 -9 -42 -12 -50 -4 -10 2 -14 21 -14 14 0 26 4 26
9 0 5 4 22 10 36 14 36 31 23 20 -16 -8 -29 -8 -30 17 -27 21 2 29 10 36 37
13 51 5 60 -56 60 -55 0 -55 -1 -62 -35z"/>
<path d="M3925 140 c-4 -6 5 -10 19 -10 14 0 26 5 26 10 0 6 -9 10 -19 10 -11
0 -23 -4 -26 -10z"/>
<path d="M4985 140 c-4 -6 5 -10 19 -10 14 0 26 5 26 10 0 6 -9 10 -19 10 -11
0 -23 -4 -26 -10z"/>
<path d="M2387 133 c-4 -3 -7 -30 -7 -60 0 -50 2 -53 25 -53 16 0 29 9 39 28
l15 27 1 -27 c0 -23 5 -28 25 -28 20 0 30 10 50 50 30 60 31 70 5 70 -13 0
-24 -10 -30 -25 -5 -14 -12 -25 -16 -25 -3 0 -3 11 0 25 9 36 -28 34 -48 -2
l-15 -28 -1 28 c0 19 -5 27 -18 27 -10 0 -22 -3 -25 -7z"/>
<path d="M3508 80 l-16 -60 25 0 c16 0 27 7 30 20 3 11 12 20 20 20 10 0 12
-6 8 -20 -5 -16 -2 -20 19 -20 21 0 27 7 36 43 6 23 13 50 16 60 4 13 -1 17
-19 17 -16 0 -26 -7 -30 -20 -3 -11 -12 -20 -20 -20 -10 0 -13 7 -10 20 4 16
0 20 -19 20 -21 0 -26 -8 -40 -60z"/>
<path d="M4383 125 c-15 -11 -21 -26 -21 -60 -1 -45 -1 -45 33 -45 24 0 35 5
35 15 0 8 -4 15 -10 15 -18 0 -10 32 9 37 24 6 36 33 16 33 -8 0 -15 5 -15 10
0 15 -22 12 -47 -5z"/>
<path d="M4696 86 c-20 -68 -20 -66 8 -66 17 0 25 8 32 32 5 17 15 33 23 36
13 4 11 -9 -6 -56 -3 -7 4 -12 21 -12 21 0 27 7 36 40 13 50 6 63 -32 58 -21
-4 -27 -1 -24 9 4 8 -3 13 -19 13 -20 0 -26 -8 -39 -54z"/>
<path d="M5036 86 c-20 -69 -21 -66 9 -66 17 0 25 6 25 18 1 16 1 16 14 0 7
-10 23 -18 35 -18 23 0 26 7 12 29 -7 10 -3 24 10 43 l20 28 -26 0 c-14 0 -28
-7 -31 -15 -4 -8 -10 -15 -15 -15 -5 0 -4 11 1 25 9 22 7 25 -15 25 -20 0 -26
-8 -39 -54z"/>
<path d="M2242 104 c-31 -21 -29 -61 4 -76 18 -8 30 -9 42 -1 25 15 27 62 5
79 -23 17 -24 17 -51 -2z m48 -33 c0 -27 -19 -36 -37 -18 -18 18 -9 37 18 37
12 0 19 -7 19 -19z"/>
<path d="M2559 99 c-5 -11 -9 -32 -7 -47 3 -25 6 -27 55 -29 59 -2 59 -2 71
55 l10 40 -59 1 c-49 0 -61 -3 -70 -20z m71 -23 c0 -16 -18 -31 -27 -22 -8 8
5 36 17 36 5 0 10 -6 10 -14z"/>
<path d="M2700 100 c-14 -25 -5 -40 23 -41 17 -1 15 -3 -7 -8 -16 -3 -31 -12
-34 -18 -5 -17 79 -18 96 -1 22 22 14 46 -15 51 -26 4 -26 4 5 6 21 0 32 6 32
16 0 25 -86 20 -100 -5z"/>
<path d="M2822 108 c-22 -22 -14 -46 16 -51 25 -4 25 -4 -5 -6 -22 0 -33 -6
-33 -16 0 -21 83 -21 100 0 17 20 5 45 -22 46 -19 1 -18 3 6 8 16 3 31 12 34
19 5 16 -79 17 -96 0z"/>
<path d="M2936 101 c-10 -11 -16 -31 -14 -48 3 -26 7 -28 49 -31 36 -2 48 1
53 14 5 13 1 15 -19 12 -14 -3 -28 -1 -31 3 -3 5 11 9 31 9 34 0 36 2 33 28
-3 24 -8 27 -44 30 -30 2 -45 -2 -58 -17z m64 -11 c0 -5 -7 -10 -16 -10 -8 0
-12 5 -9 10 3 6 10 10 16 10 5 0 9 -4 9 -10z"/>
<path d="M3051 76 c-14 -58 -15 -56 14 -56 18 0 25 5 25 20 0 12 10 24 24 29
13 5 26 19 29 30 5 19 1 21 -38 21 -42 0 -43 -1 -54 -44z"/>
<path d="M3265 80 c-8 -50 -2 -60 41 -60 35 0 74 28 74 54 0 8 3 21 6 30 5 12
0 16 -20 16 -21 0 -28 -6 -33 -30 -3 -17 -10 -33 -16 -37 -6 -4 -7 7 -3 31 6
33 5 36 -18 36 -21 0 -25 -6 -31 -40z"/>
<path d="M3662 71 c3 -30 1 -49 -5 -48 -5 1 -12 -4 -14 -10 -3 -9 6 -13 26
-13 27 0 36 8 66 55 19 30 35 57 35 60 0 15 -40 2 -53 -17 l-16 -23 0 23 c-1
16 -7 22 -22 22 -20 0 -21 -4 -17 -49z"/>
<path d="M3781 107 c-5 -7 -12 -24 -16 -39 -5 -21 -3 -27 13 -32 10 -4 27 -3
37 0 13 5 16 4 10 -5 -4 -8 -20 -11 -36 -9 -20 3 -29 0 -29 -9 0 -14 76 -19
97 -5 12 8 25 38 37 84 6 26 6 27 -48 27 -30 0 -59 -6 -65 -12z m59 -32 c0 -8
-7 -15 -15 -15 -16 0 -20 12 -8 23 11 12 23 8 23 -8z"/>
<path d="M3916 108 c-3 -7 -9 -28 -15 -47 -14 -44 -15 -41 14 -41 19 0 26 7
34 38 15 53 14 62 -9 62 -11 0 -22 -6 -24 -12z"/>
<path d="M3982 107 c-6 -6 -13 -24 -17 -38 -8 -34 13 -51 61 -47 48 4 56 25
12 31 l-33 4 38 1 c34 2 37 4 37 32 0 29 -2 30 -44 30 -24 0 -48 -6 -54 -13z
m63 -17 c3 -5 -3 -10 -15 -10 -12 0 -18 5 -15 10 3 6 10 10 15 10 5 0 12 -4
15 -10z"/>
<path d="M4105 106 c-2 -6 -8 -26 -14 -45 -14 -44 -15 -41 14 -41 19 0 26 7
33 32 12 47 35 50 27 4 -6 -32 -5 -36 13 -36 26 0 30 6 38 58 l6 41 -56 0
c-34 -1 -59 -6 -61 -13z"/>
<path d="M4246 104 c-11 -10 -16 -28 -14 -48 3 -30 5 -31 47 -31 53 0 71 24
19 26 -32 2 -32 2 7 8 34 5 40 10 40 31 0 22 -5 25 -41 28 -29 2 -47 -2 -58
-14z m59 -14 c3 -5 -1 -10 -10 -10 -9 0 -13 5 -10 10 3 6 8 10 10 10 2 0 7 -4
10 -10z"/>
<path d="M4465 96 c-9 -14 -15 -35 -13 -48 3 -20 10 -23 49 -26 35 -2 48 1 52
13 5 11 -1 15 -26 16 l-32 2 35 6 c29 5 35 10 35 31 0 22 -5 25 -42 28 -35 3
-44 -1 -58 -22z m65 -6 c0 -5 -7 -10 -16 -10 -8 0 -12 5 -9 10 3 6 10 10 16
10 5 0 9 -4 9 -10z"/>
<path d="M4585 88 c-19 -47 -4 -70 43 -66 24 2 38 9 40 19 2 10 -4 15 -15 15
-28 -1 -31 19 -3 23 24 3 39 16 40 34 0 4 -20 7 -45 7 -42 0 -47 -3 -60 -32z"/>
<path d="M4830 81 c-15 -53 -13 -61 15 -61 17 0 25 5 25 18 0 10 7 27 16 38
15 18 15 17 10 -19 -4 -33 -3 -37 18 -37 19 0 26 8 34 42 6 23 9 45 6 50 -3 4
-29 7 -59 7 -54 -1 -55 -1 -65 -38z"/>
<path d="M4971 83 c-16 -55 -14 -65 11 -61 17 2 25 14 34 51 12 46 11 47 -12
47 -18 0 -25 -8 -33 -37z"/>
<path d="M3146 74 c-5 -12 1 -15 26 -12 42 4 50 28 10 28 -18 0 -32 -6 -36
-16z"/>
<path d="M3385 40 c-8 -12 20 -24 35 -15 5 3 10 10 10 16 0 12 -37 12 -45 -1z"/>
</g>
</svg>
